<svg height="464pt" viewBox="0 0 464 464" width="464pt" xmlns="http://www.w3.org/2000/svg"><path d="m440 232c0 114.875-93.125 208-208 208s-208-93.125-208-208 93.125-208 208-208 208 93.125 208 208zm0 0" fill="#41dfd0"/><g fill="#34b2a6"><path d="m224 32h16v400h-16zm0 0"/><path d="m32 224h400v16h-400zm0 0"/><path d="m232 392c-71.785156-.003906-134.777344-47.816406-154.089844-116.953125-19.316406-69.136719 9.78125-142.675781 71.171875-179.878906 61.390625-37.207031 140.046875-28.96875 192.398438 20.144531l-10.960938 11.671875c-47.117187-44.207031-117.910156-51.621094-173.160156-18.132813-55.253906 33.484376-81.441406 99.671876-64.054687 161.898438 17.386718 62.226562 74.085937 105.253906 138.695312 105.25zm0 0"/><path d="m260.390625 389.488281-2.847656-15.753906c4.976562-.898437 9.902343-2.050781 14.761719-3.453125l4.464843 15.359375c-5.390625 1.5625-10.855469 2.847656-16.378906 3.847656zm32.273437-9.390625-6.078124-14.800781c4.667968-1.917969 9.234374-4.078125 13.679687-6.472656l7.605469 14.070312c-4.9375 2.667969-10.015625 5.070313-15.207032 7.203125zm29.601563-15.953125-9.066406-13.207031c4.160156-2.851562 8.167969-5.925781 12-9.203125l10.402343 12.1875c-4.277343 3.636719-8.738281 7.046875-13.371093 10.222656zm25.597656-21.777343-11.566406-11.046876c3.484375-3.65625 6.777344-7.492187 9.863281-11.488281l12.640625 9.769531c-3.429687 4.453126-7.089843 8.726563-10.96875 12.796876zm20.519531-26.613282-13.597656-8.394531c2.648438-4.304687 5.066406-8.742187 7.246094-13.304687l14.402344 6.90625c-2.4375 5.066406-5.136719 10.003906-8.082032 14.792968zm14.519532-30.347656-15.085938-5.328125c1.679688-4.761719 3.113282-9.613281 4.289063-14.527344l15.558593 3.707031c-1.3125 5.464844-2.910156 10.855469-4.792968 16.148438zm7.800781-32.703125-15.871094-2.046875c.648438-5.015625 1.03125-10.058594 1.152344-15.113281l16 .394531c-.148437 5.605469-.585937 11.203125-1.3125 16.765625zm-15.136719-32.296875c-.402344-5.039062-1.070312-10.058594-2-15.03125l15.738282-2.933594c1.019531 5.515625 1.761718 11.078125 2.222656 16.671875zm-5.597656-29.742188c-1.449219-4.84375-3.15625-9.605468-5.113281-14.265624l14.769531-6.175782c2.164062 5.183594 4.058594 10.472656 5.671875 15.847656zm-11.679688-27.894531c-2.441406-4.433593-5.109374-8.730469-8-12.882812l13.144532-9.132813c3.199218 4.613282 6.15625 9.390625 8.863281 14.308594zm0 0"/><path d="m268.953125 436.726562-2.808594-15.75c4.984375-.886718 10.023438-2.007812 14.984375-3.3125l4.070313 15.472657c-5.367188 1.414062-10.800781 2.625-16.246094 3.589843zm32.160156-8.488281-5.3125-15.085937c4.800781-1.679688 9.597657-3.601563 14.238281-5.671875l6.511719 14.609375c-5.054687 2.253906-10.253906 4.308594-15.4375 6.148437zm30.34375-13.519531-7.65625-14.046875c4.457031-2.398437 8.886719-5.085937 13.160157-7.878906l8.800781 13.382812c-4.664063 3.03125-9.472657 5.914063-14.304688 8.542969zm27.808594-18.191406-9.808594-12.640625c4.0625-3.152344 8-6.480469 11.757813-9.878907l10.785156 11.824219c-4.054688 3.679688-8.335938 7.289063-12.734375 10.695313zm24.558594-22.398438-11.671875-10.929687c3.472656-3.710938 6.855468-7.613281 10.046875-11.625l12.503906 10.027343c-3.457031 4.320313-7.117187 8.558594-10.878906 12.566407zm20.71875-25.984375-13.261719-8.945312c2.855469-4.222657 5.597656-8.613281 8.078125-13.0625l13.9375 7.855469c-2.722656 4.847656-5.664063 9.617187-8.753906 14.191406zm16.34375-28.945312-14.488281-6.6875c2.152343-4.679688 4.136718-9.457031 5.882812-14.207031l15.015625 5.527343c-1.9375 5.144531-4.097656 10.320313-6.410156 15.367188zm11.496093-31.199219-15.421874-4.296875c1.367187-4.902344 2.550781-9.933594 3.535156-14.933594l15.695312 3.046875c-1.046875 5.40625-2.335937 10.855469-3.808594 16.183594zm6.328126-32.617188-15.902344-1.78125c.558594-5.050781.933594-10.195312 1.09375-15.3125l16 .519532c-.183594 5.519531-.582032 11.09375-1.191406 16.566406zm-14.917969-32.460937c-.242188-5.105469-.679688-10.25-1.320313-15.304687l15.871094-2.007813c.6875 5.46875 1.167969 11.039063 1.433594 16.566406zm-3.871094-30.402344c-1.042969-4.96875-2.296875-9.976562-3.746094-14.871093l15.34375-4.527344c1.601563 5.320312 2.945313 10.742187 4.054688 16.125zm-8.664063-29.40625c-1.824218-4.761719-3.875-9.503906-6.089843-14.089843l14.398437-6.933594c2.402344 4.972656 4.617188 10.117187 6.601563 15.285156zm-13.265624-27.640625c-2.617188-4.472656-5.398438-8.800781-8.273438-12.953125l13.136719-9.144531c3.105469 4.472656 6.121093 9.175781 8.953125 14.015625zm0 0"/><path d="m232 440c-94.617188 0-177.3125-63.855469-201.242188-155.398438-23.925781-91.542968 16.941407-187.699218 99.457032-234 82.515625-46.296874 185.882812-31.070312 251.546875 37.054688l-11.523438 11.113281c-60.605469-62.890625-156.023437-76.953125-232.195312-34.214843-76.171875 42.738281-113.902344 131.5-91.8125 216 22.089843 84.503906 98.429687 143.449218 185.769531 143.445312zm0 0"/><path d="m256.800781 341.238281-3.511719-15.636719c4.535157-1.027343 8.988282-2.386718 13.328126-4.066406l5.78125 14.929688c-5.074219 1.96875-10.289063 3.5625-15.597657 4.773437zm30.261719-11.710937-7.894531-13.917969c4.054687-2.292969 7.933593-4.875 11.617187-7.730469l9.808594 12.640625c-4.277344 3.324219-8.789062 6.335938-13.496094 9.007813zm25.601562-19.886719-11.519531-11.097656c3.226563-3.351563 6.207031-6.929688 8.917969-10.710938l13.015625 9.3125c-3.152344 4.410157-6.617187 8.585938-10.375 12.496094zm18.902344-26.402344-14.214844-7.328125c2.132813-4.125 3.957032-8.402344 5.457032-12.796875l15.144531 5.167969c-1.742187 5.140625-3.863281 10.144531-6.34375 14.976562zm10.523438-30.71875-15.691406-2.917969c.847656-4.578124 1.359374-9.207031 1.539062-13.859374l16 .609374c-.210938 5.433594-.816406 10.839844-1.808594 16.183594zm-14.65625-30.726562c-.492188-4.628907-1.320313-9.21875-2.472656-13.730469l15.496093-4c1.34375 5.257812 2.304688 10.605469 2.878907 16zm-6.914063-26.9375c-1.804687-4.289063-3.917969-8.441407-6.328125-12.421875l13.703125-8.273438c2.804688 4.648438 5.269531 9.492188 7.378907 14.496094zm0 0"/><path d="m232 344v-16c2.488281 0 4.945312-.097656 7.382812-.28125l1.234376 15.953125c-2.839844.214844-5.730469.328125-8.617188.328125zm0 0"/><path d="m232 344c-50.984375.011719-95.539062-34.414062-108.398438-83.746094-12.863281-49.335937 9.21875-101.128906 53.71875-126.011718 44.496094-24.878907 100.183594-16.570313 135.480469 20.222656l-11.554687 11.070312c-30.253906-31.53125-77.984375-38.652344-116.125-17.324218-38.140625 21.328124-57.0625 65.726562-46.039063 108.011718 11.027344 42.285156 49.21875 71.789063 92.917969 71.777344zm0 0"/><path d="m232 296c-35.347656 0-64-28.652344-64-64s28.652344-64 64-64 64 28.652344 64 64c-.039062 35.328125-28.671875 63.960938-64 64zm0-112c-26.507812 0-48 21.492188-48 48s21.492188 48 48 48 48-21.492188 48-48c-.027344-26.5-21.5-47.972656-48-48zm0 0"/></g><path d="m248 128c0 8.835938-7.164062 16-16 16s-16-7.164062-16-16 7.164062-16 16-16 16 7.164062 16 16zm0 0" fill="#46fff8"/><path d="m136 128c0 8.835938-7.164062 16-16 16s-16-7.164062-16-16 7.164062-16 16-16 16 7.164062 16 16zm0 0" fill="#46fff8"/><path d="m192 232c0 8.835938-7.164062 16-16 16s-16-7.164062-16-16 7.164062-16 16-16 16 7.164062 16 16zm0 0" fill="#46fff8"/><path d="m226.339844 226.34375 144.003906-144 11.3125 11.3125-144 144zm0 0" fill="#34b2a6"/><path d="m232 0c-128.128906 0-232 103.871094-232 232s103.871094 232 232 232 232-103.871094 232-232-103.871094-232-232-232zm0 432c-110.457031 0-200-89.542969-200-200s89.542969-200 200-200 200 89.542969 200 200-89.542969 200-200 200zm0 0" fill="#9c9c9c"/></svg>