<svg height="480pt" viewBox="0 -96 480.03399 480" width="480pt" xmlns="http://www.w3.org/2000/svg"><path d="m448.015625 152.015625h16v136h-16zm0 0" fill="#834b10"/><path d="m16.015625 152.015625h16v136h-16zm0 0" fill="#834b10"/><path d="m441.617188 161.226562c-7.992188 0-15.914063-1.523437-23.335938-4.488281l-13.222656-5.289062c-4.105469-1.644531-6.101563-6.304688-4.457032-10.410157 1.644532-4.101562 6.304688-6.097656 10.40625-4.453124l13.21875 5.285156c14.316407 5.730468 30.535157 4.042968 43.367188-4.511719 3.675781-2.449219 8.644531-1.457031 11.09375 2.21875 2.453125 3.675781 1.460938 8.644531-2.214844 11.09375-10.320312 6.882813-22.449218 10.554687-34.855468 10.554687zm0 0" fill="#80b48e"/><path d="m38.417969 161.226562c-12.40625 0-24.535157-3.671874-34.855469-10.554687-3.675781-2.449219-4.667969-7.417969-2.21875-11.09375 2.453125-3.675781 7.421875-4.667969 11.097656-2.21875 12.835938 8.550781 29.054688 10.238281 43.375 4.511719l13.207032-5.285156c4.105468-1.644532 8.765624.351562 10.410156 4.453124 1.644531 4.105469-.351563 8.765626-4.457032 10.410157l-13.222656 5.289062c-7.421875 2.964844-15.34375 4.488281-23.335937 4.488281zm0 0" fill="#80b48e"/><path d="m424.015625 288.015625h-368l16-144h336zm0 0" fill="#8dc79d"/><path d="m296.015625 288.015625h-112v-83.925781c.003906-7.144532 4.738281-13.421875 11.609375-15.386719l44.390625-12.6875 44.394531 12.6875c6.867188 1.964844 11.605469 8.242187 11.605469 15.386719zm0 0" fill="#6b9777"/><g fill="#99d8aa"><path d="m240.015625.015625-168 144h336zm0 0"/><path d="m240.015625 176.015625c2.632813 9.335937 6.578125 18.246094 11.714844 26.472656 7.367187 13.574219 20.085937 23.4375 35.0625 27.199219l9.222656 2.328125-40 56h40v-83.925781c0-7.144532-4.738281-13.421875-11.605469-15.386719zm0 0"/><path d="m240.015625 176.015625c-2.628906 9.335937-6.574219 18.246094-11.710937 26.472656-7.367188 13.574219-20.085938 23.4375-35.0625 27.199219l-9.226563 2.328125 40 56h-40v-83.925781c.003906-7.144532 4.738281-13.421875 11.609375-15.386719zm0 0"/></g><path d="m336.015625 184.015625h40v40h-40zm0 0" fill="#a2dabe"/><path d="m344.015625 184.015625h32v32h-32zm0 0" fill="#aae5c8"/><path d="m104.015625 184.015625h40v40h-40zm0 0" fill="#a2dabe"/><path d="m112.015625 184.015625h32v32h-32zm0 0" fill="#aae5c8"/><path d="m88.015625 176.015625h72v16h-72zm0 0" fill="#6b9777"/><path d="m320.015625 176.015625h72v16h-72zm0 0" fill="#6b9777"/><path d="m324.015625 72.015625h-28c-4.417969 0-8 3.582031-8 8s-3.582031 8-8 8h-12c-6.625 0-12 5.375-12 12 0 6.628906 5.375 12 12 12h43.113281c9.328125 0 16.886719 7.5625 16.886719 16.890625 0 8.34375 6.765625 15.109375 15.113281 15.109375h64.886719zm0 0" fill="#c99b50"/><path d="m192.015625 80.015625c4.417969 0 8-3.582031 8-8s3.582031-8 8-8h24c8.839844 0 16-7.160156 16-16 0-8.835937-7.160156-16-16-16-.015625-6.929687-3.046875-13.507813-8.300781-18.023437l-77.035156 66.023437zm0 0" fill="#80b48e"/><path d="m160.015625 128.015625c0-8.835937-7.160156-16-16-16h-34.664063l-37.335937 32h72c8.839844 0 16-7.160156 16-16zm0 0" fill="#a2752a"/><path d="m184.015625 104.015625h16v16h-16zm0 0" fill="#c99b50"/><path d="m216.015625 88.015625h16v16h-16zm0 0" fill="#5e8569"/><path d="m328.015625 248.015625h16v16h-16zm0 0" fill="#5e8569"/><path d="m376.015625 248.015625h16v16h-16zm0 0" fill="#a2752a"/><path d="m58.679688 264.015625h21.335937v-16h-19.550781zm0 0" fill="#6b9777"/><path d="m96.015625 248.015625h16v16h-16zm0 0" fill="#a2752a"/><path d="m136.015625 264.015625h16v24h-16zm0 0" fill="#6b9777"/><path d="m168.015625 152.015625h16v16h-16zm0 0" fill="#6b9777"/><path d="m296.015625 144.015625h16v24h-16zm0 0" fill="#c99b50"/><path d="m408.90625 152.015625-.890625-8h-336l-.886719 8zm0 0" fill="#7db08b"/></svg>