<svg height="480pt" viewBox="0 -16 480 480" width="480pt" xmlns="http://www.w3.org/2000/svg"><path d="m176 360h16v56h-16l-32 24h-32v-24zm0 0" fill="#e06661"/><path d="m304 360h-16v56h16l32 24h32v-24zm0 0" fill="#e06661"/><path d="m392 344h16v32h-16zm0 0" fill="#fbd699"/><path d="m416 264h16v40h-16zm0 0" fill="#b9b9b9"/><path d="m368 240h16v32h-16zm0 0" fill="#b9b9b9"/><path d="m320 216h16v40h-16zm0 0" fill="#b9b9b9"/><path d="m304 328 168 32v-48l-168-80h-16v96zm0 0" fill="#e0e0e0"/><path d="m304 288 168 48v24l-168-32h-16v-40zm0 0" fill="#4799cf"/><path d="m464 288h16v88h-16zm0 0" fill="#b9b9b9"/><path d="m72 344h16v32h-16zm0 0" fill="#fbd699"/><path d="m48 264h16v32h-16zm0 0" fill="#b9b9b9"/><path d="m96 240h16v32h-16zm0 0" fill="#b9b9b9"/><path d="m144 216h16v40h-16zm0 0" fill="#b9b9b9"/><path d="m176 328-168 32v-48l168-80h16v96zm0 0" fill="#e0e0e0"/><path d="m176 288-168 48v24l168-32h8v-40zm0 0" fill="#4799cf"/><path d="m0 288h16v88h-16zm0 0" fill="#b9b9b9"/><path d="m176 280v-48c10.410156-6.246094 18.628906-15.5625 23.527344-26.671875l16.472656-37.328125h48l16.472656 37.328125c4.898438 11.109375 13.117188 20.425781 23.527344 26.671875v48zm0 0" fill="#e8e8e8"/><path d="m304 328v-40l-40-8h-48l-40 8v40l8 8v16l-8 8v24h48v64h32v-64h48v-24l-8-8v-16zm0 0" fill="#9c9c9c"/><path d="m224 416h32v32h-32zm0 0" fill="#b9b9b9"/><g fill="#fbd699"><path d="m32 376h16v16h-16zm0 0"/><path d="m32 408h16v32h-16zm0 0"/><path d="m72 392h16v16h-16zm0 0"/><path d="m432 376h16v16h-16zm0 0"/><path d="m432 408h16v32h-16zm0 0"/><path d="m392 392h16v16h-16zm0 0"/></g><path d="m264 256h-48v-184c0-25.964844 8.421875-51.226562 24-72 15.578125 20.773438 24 46.035156 24 72zm0 0" fill="#cdcdcd"/><path d="m264 120-10.34375 10.34375c-3.621094 3.621094-8.535156 5.65625-13.65625 5.65625s-10.035156-2.035156-13.65625-5.65625l-10.34375-10.34375v-32l10.34375-10.34375c3.621094-3.621094 8.535156-5.65625 13.65625-5.65625s10.035156 2.035156 13.65625 5.65625l10.34375 10.34375zm0 0" fill="#6cbae5"/><path d="m224 416-16 24h-16l-16-24v-32h48zm0 0" fill="#277baa"/><path d="m304 416-16 24h-16l-16-24v-32h48zm0 0" fill="#277baa"/><path d="m176 384h128v32h-128zm0 0" fill="#4799cf"/><path d="m216 160h48v16h-48zm0 0" fill="#e06661"/><path d="m264 240h-48l-40 32v40l40-32h48l40 32v-40zm0 0" fill="#c95c57"/><path d="m216 224h48v40h-48zm0 0" fill="#e06661"/><path d="m224 352h32v64h-32zm0 0" fill="#cdcdcd"/><path d="m248 73.792969c-5.066406-2.390625-10.933594-2.390625-16 0l-2.457031 4.640625c-8.472657 15.992187-8.472657 35.140625 0 51.132812l2.457031 4.640625c5.066406 2.390625 10.933594 2.390625 16 0l2.457031-4.640625c8.472657-15.992187 8.472657-35.140625 0-51.132812zm0 0" fill="#72c5f3"/><path d="m216 256h48v64h-48zm0 0" fill="#4799cf"/><path d="m296 352h-112v-16l56-24 56 24zm0 0" fill="#787d82"/><path d="m240 304-24 16 8 48 16 16 16-16 8-48zm0 0" fill="#6cbae5"/></svg>