<svg height="448pt" viewBox="-64 0 448 448" width="448pt" xmlns="http://www.w3.org/2000/svg"><path d="m128 248h64v48h-64zm0 0" fill="#f9d7c0"/><path d="m128 273.296875c20.398438 8.9375 43.601562 8.9375 64 0v-25.296875h-64zm0 0" fill="#eeceb8"/><path d="m48 136.609375c0 13.769531 10.128906 25.445313 23.761719 27.390625l33.125 4.734375c36.558593 5.21875 73.667969 5.21875 110.226562 0l33.125-4.734375c13.632813-1.945312 23.761719-13.621094 23.761719-27.390625l-43.753906-9.410156c-44.984375-9.640625-91.507813-9.640625-136.492188 0zm0 0" fill="#5e8569"/><path d="m160 56c44.183594 0 80 35.816406 80 80v48c0 44.183594-35.816406 80-80 80s-80-35.816406-80-80v-48c0-44.183594 35.816406-80 80-80zm0 0" fill="#f9d7c0"/><path d="m48 296h224c26.507812 0 48 21.492188 48 48v104h-320v-104c0-26.507812 21.492188-48 48-48zm0 0" fill="#85bc94"/><path d="m272 296c-8.835938 0-16 7.164062-16 16s7.164062 16 16 16h8c4.417969 0 8 3.582031 8 8s3.582031 8 8 8h24c0-26.507812-21.492188-48-48-48zm0 0" fill="#5e8569"/><path d="m24 352c4.417969 0 8-3.582031 8-8s3.582031-8 8-8h8c8.835938 0 16-7.164062 16-16s-7.164062-16-16-16h-4c-4.207031-.015625-8.097656-2.234375-10.257812-5.847656-20.074219 6.242187-33.7500005 24.824218-33.742188 45.847656v8zm0 0" fill="#55785f"/><g fill="#9c775c"><path d="m128 168c-4.417969 0-8-3.582031-8-8v-8c0-4.417969 3.582031-8 8-8s8 3.582031 8 8v8c0 4.417969-3.582031 8-8 8zm0 0"/><path d="m192 168c-4.417969 0-8-3.582031-8-8v-8c0-4.417969 3.582031-8 8-8s8 3.582031 8 8v8c0 4.417969-3.582031 8-8 8zm0 0"/><path d="m160 227.863281c-9.015625.011719-17.972656-1.433593-26.527344-4.277343-4.199218-1.398438-6.46875-5.933594-5.074218-10.128907 1.398437-4.199219 5.933593-6.46875 10.128906-5.074219 13.945312 4.609376 29 4.609376 42.945312 0 4.195313-1.394531 8.730469.875 10.128906 5.074219 1.394532 4.195313-.875 8.730469-5.074218 10.128907-8.554688 2.84375-17.511719 4.289062-26.527344 4.277343zm0 0"/><path d="m160 200c-2.121094 0-4.15625-.84375-5.65625-2.34375l-8-8c-2.140625-2.144531-2.886719-5.3125-1.929688-8.183594l8-24c1.398438-4.199218 5.933594-6.46875 10.128907-5.074218 4.199219 1.398437 6.46875 5.933593 5.074219 10.128906l-6.402344 19.304687 4.496094 4.511719c2.296874 2.296875 2.976562 5.75 1.722656 8.742188-1.25 2.996093-4.1875 4.9375-7.433594 4.914062zm0 0"/></g><path d="m0 384h64v64h-64zm0 0" fill="#f9d7c0"/><path d="m256 384h64v64h-64zm0 0" fill="#f9d7c0"/><path d="m152 352h16v96h-16zm0 0" fill="#74a481"/><path d="m64 392h23.609375c9.050781 0 16.390625 7.339844 16.390625 16.390625 0 4.203125 3.40625 7.609375 7.609375 7.609375h4.390625c6.628906 0 12 5.371094 12 12v20h-64zm0 0" fill="#5e8569"/><path d="m216 372c0 6.628906-5.371094 12-12 12s-12 5.371094-12 12 5.371094 12 12 12h12c4.417969 0 8 3.582031 8 8s3.582031 8 8 8h24v-64h-28c-6.628906 0-12 5.371094-12 12zm0 0" fill="#55785f"/><path d="m112 368h16v16h-16zm0 0" fill="#55785f"/><path d="m240 176v-48h32v16c0 17.671875-14.328125 32-32 32zm0 0" fill="#eeceb8"/><path d="m80 176v-48h-32v16c0 17.671875 14.328125 32 32 32zm0 0" fill="#eeceb8"/><path d="m80 104h160v24h-160zm0 0" fill="#dcbea9"/><path d="m272 136-43.753906-9.375c-44.984375-9.640625-91.507813-9.640625-136.492188 0l-43.753906 9.375v-17.375c0-4.242188 1.6875-8.3125 4.6875-11.3125l11.3125-11.3125c0-53.019531 42.980469-96 96-96s96 42.980469 96 96l11.3125 11.3125c3 3 4.6875 7.070312 4.6875 11.3125zm0 0" fill="#85bc94"/><path d="m199.144531 8.398438c-1.804687 4.582031-6.222656 7.59375-11.144531 7.601562h-4c-8.835938 0-16 7.164062-16 16s7.164062 16 16 16h8c4.417969 0 8 3.582031 8 8s3.582031 8 8 8h42.398438c-8.773438-24.753906-27.292969-44.84375-51.253907-55.601562zm0 0" fill="#5e8569"/><path d="m64 96-6.007812 6.007812h42.007812c6.628906 0 12-5.371093 12-12 0-6.628906 5.371094-12 12-12h4c8.835938 0 16-7.164062 16-16 0-8.835937-7.164062-16-16-16h-1c-8.285156 0-15-6.714843-15-15 .003906-5.441406-2.945312-10.457031-7.703125-13.097656-25.285156 17.972656-40.300781 47.070313-40.296875 78.089844zm0 0" fill="#5e8569"/><path d="m272 136v-17.375c0-4.242188-1.6875-8.3125-4.6875-11.3125l-11.3125-11.3125c0-2.398438-.183594-4.800781-.367188-7.199219l-11.863281-.394531c-7.171875-.238281-13.824219 3.71875-17.035156 10.136719-1.773437 3.554687-4.65625 6.433593-8.207031 8.210937l-26.527344 13.246094.351562 1.046875c12.0625 1.199219 24.042969 3.066406 35.894532 5.601563zm0 0" fill="#5e8569"/><path d="m56 352h8v40h-8zm0 0" fill="#6b9777"/><path d="m256 352h8v40h-8zm0 0" fill="#6b9777"/><path d="m0 384h64v32h-64zm0 0" fill="#74a481"/><path d="m256 384h64v32h-64zm0 0" fill="#74a481"/><path d="m128 296 32 64 32-64zm0 0" fill="#55785f"/><path d="m192 296 32 32-64 32zm0 0" fill="#b9b9b9"/><path d="m128 296-32 32 64 32zm0 0" fill="#b9b9b9"/></svg>