<svg id="Capa_1" data-name="Capa 1" xmlns="http://www.w3.org/2000/svg" viewBox="0 0 439.26 458.19"><defs><style>.cls-1{fill:#00ff4b;fill-opacity:0.85;}</style></defs><g id="g6"><g id="g4"><path id="path2" class="cls-1" d="M445.65,202a17.07,17.07,0,0,0-33.71,5.38c0,.1,0,.2.05.3C429.38,309.94,360.52,407,258.21,424.35S58.87,372.88,41.49,270.57,93,71.23,195.28,53.85a187.91,187.91,0,0,1,170.06,58.36L289.73,137.4A17.08,17.08,0,0,0,278.92,159h0a17.07,17.07,0,0,0,21.58,10.81h0l102.4-34.14a17.06,17.06,0,0,0,11.67-16.19V17.07a17.07,17.07,0,1,0-34.13,0V79.41C292.56-4.18,153.54-.7,70,87.19S-10.17,314.1,77.73,397.7s226.91,80.11,310.51-7.78A219.66,219.66,0,0,0,445.65,202Z" transform="translate(-9.46)"/></g></g></svg>