<svg xmlns="http://www.w3.org/2000/svg" width="133.337" height="135.44" viewBox="0 0 133.337 135.44">
  <g id="layer1" transform="translate(-33.382 -14.812)">
    <g id="g615" transform="translate(32.33 14.812)">
      <g id="g279">
        <g id="g277">
          <path id="path275" d="M41.268,8.467H3.169a2.115,2.115,0,0,0-2.117,2.117v38.1A2.115,2.115,0,0,0,3.169,50.8h38.1a2.115,2.115,0,0,0,2.117-2.117v-38.1A2.115,2.115,0,0,0,41.268,8.467Zm-2.117,38.1H5.286V12.7H39.152Z" fill="#4285f4"/>
        </g>
      </g>
      <g id="g285">
        <g id="g283">
          <path id="path281" d="M49.735,0h-38.1a2.117,2.117,0,1,0,0,4.233H47.618V40.217a2.117,2.117,0,1,0,4.233,0V2.117A2.115,2.115,0,0,0,49.735,0Z" fill="#4285f4"/>
        </g>
      </g>
      <g id="g291">
        <g id="g289">
          <path id="path287" d="M13.132.621a2.114,2.114,0,0,0-2.993,0L1.672,9.087A2.116,2.116,0,1,0,4.665,12.08l8.467-8.467a2.114,2.114,0,0,0,0-2.993Z" fill="#4285f4"/>
        </g>
      </g>
      <g id="g297">
        <g id="g295">
          <path id="path293" d="M51.231,38.72a2.114,2.114,0,0,0-2.993,0l-8.467,8.467a2.116,2.116,0,1,0,2.993,2.993l8.467-8.467a2.114,2.114,0,0,0,0-2.993Z" fill="#4285f4"/>
        </g>
      </g>
      <g id="g303">
        <g id="g301">
          <path id="path299" d="M51.231.621a2.114,2.114,0,0,0-2.993,0L39.772,9.087a2.116,2.116,0,1,0,2.993,2.993l8.467-8.467a2.114,2.114,0,0,0,0-2.993Z" fill="#4285f4"/>
        </g>
      </g>
      <g id="g309">
        <g id="g307">
          <path id="path305" d="M41.268,93.107H3.169a2.115,2.115,0,0,0-2.117,2.117v38.1a2.115,2.115,0,0,0,2.117,2.117h38.1a2.115,2.115,0,0,0,2.117-2.117v-38.1A2.115,2.115,0,0,0,41.268,93.107Zm-2.117,38.1H5.286V97.341H39.152Z" fill="#4285f4"/>
        </g>
      </g>
      <g id="g315">
        <g id="g313">
          <path id="path311" d="M49.735,84.641h-38.1a2.117,2.117,0,0,0,0,4.233H47.618v35.983a2.117,2.117,0,0,0,4.233,0v-38.1A2.115,2.115,0,0,0,49.735,84.641Z" fill="#4285f4"/>
        </g>
      </g>
      <g id="g321">
        <g id="g319">
          <path id="path317" d="M13.132,85.261a2.114,2.114,0,0,0-2.993,0L1.672,93.727A2.116,2.116,0,1,0,4.665,96.72l8.467-8.467A2.114,2.114,0,0,0,13.132,85.261Z" fill="#4285f4"/>
        </g>
      </g>
      <g id="g327">
        <g id="g325">
          <path id="path323" d="M51.231,123.36a2.114,2.114,0,0,0-2.993,0l-8.467,8.467a2.116,2.116,0,1,0,2.993,2.993l8.467-8.467a2.114,2.114,0,0,0,0-2.993Z" fill="#4285f4"/>
        </g>
      </g>
      <g id="g333">
        <g id="g331">
          <path id="path329" d="M51.231,85.261a2.114,2.114,0,0,0-2.993,0l-8.467,8.467a2.116,2.116,0,1,0,2.993,2.993l8.467-8.467a2.114,2.114,0,0,0,0-2.993Z" fill="#4285f4"/>
        </g>
      </g>
      <g id="g339">
        <g id="g337">
          <path id="path335" d="M26.452,74.058a2.115,2.115,0,0,0-2.117,2.117V90.991a2.117,2.117,0,0,0,4.233,0V76.174A2.115,2.115,0,0,0,26.452,74.058Z" fill="#4285f4"/>
        </g>
      </g>
      <g id="g345">
        <g id="g343">
          <path id="path341" d="M26.452,57.124a8.475,8.475,0,0,0-8.467,8.467v8.467a8.467,8.467,0,1,0,16.933,0V65.591a8.475,8.475,0,0,0-8.467-8.467Zm4.233,16.933a4.233,4.233,0,1,1-8.467,0V65.591a4.233,4.233,0,1,1,8.467,0Z" fill="#4285f4"/>
        </g>
      </g>
      <g id="g351">
        <g id="g349">
          <path id="path347" d="M26.452,46.541a2.115,2.115,0,0,0-2.117,2.117V63.474a2.117,2.117,0,0,0,4.233,0V48.658A2.115,2.115,0,0,0,26.452,46.541Z" fill="#4285f4"/>
        </g>
      </g>
      <g id="g357">
        <g id="g355">
          <path id="path353" d="M60.305,107.924H45.489a2.117,2.117,0,0,0,0,4.233H60.305a2.117,2.117,0,0,0,0-4.233Z" fill="#4285f4"/>
        </g>
      </g>
      <g id="g363">
        <g id="g361">
          <path id="path359" d="M70.889,101.574H62.422a8.467,8.467,0,1,0,0,16.933h8.467a8.467,8.467,0,1,0,0-16.933Zm0,12.7H62.422a4.233,4.233,0,1,1,0-8.467h8.467a4.233,4.233,0,0,1,0,8.467Z" fill="#4285f4"/>
        </g>
      </g>
      <g id="g369">
        <g id="g367">
          <path id="path365" d="M85.705,107.924h-12.7a2.117,2.117,0,0,0,0,4.233h12.7a2.117,2.117,0,1,0,0-4.233Z" fill="#4285f4"/>
        </g>
      </g>
      <g id="g375">
        <g id="g373">
          <path id="path371" d="M60.305,23.258H45.489a2.117,2.117,0,0,0,0,4.233H60.305a2.117,2.117,0,0,0,0-4.233Z" fill="#4285f4"/>
        </g>
      </g>
      <g id="g381">
        <g id="g379">
          <path id="path377" d="M70.889,16.908H62.422a8.467,8.467,0,0,0,0,16.933h8.467a8.467,8.467,0,1,0,0-16.933Zm0,12.7H62.422a4.233,4.233,0,1,1,0-8.467h8.467a4.233,4.233,0,0,1,0,8.467Z" fill="#4285f4"/>
        </g>
      </g>
      <g id="g387">
        <g id="g385">
          <path id="path383" d="M85.705,23.258h-12.7a2.117,2.117,0,0,0,0,4.233h12.7a2.117,2.117,0,1,0,0-4.233Z" fill="#4285f4"/>
        </g>
      </g>
      <g id="g393">
        <g id="g391">
          <path id="path389" d="M123.8,8.467h-38.1a2.115,2.115,0,0,0-2.117,2.117v38.1A2.115,2.115,0,0,0,85.705,50.8h38.1a2.115,2.115,0,0,0,2.117-2.117v-38.1A2.115,2.115,0,0,0,123.8,8.467Zm-2.117,38.1H87.822V12.7h33.866Z" fill="#4285f4"/>
        </g>
      </g>
      <g id="g399">
        <g id="g397">
          <path id="path395" d="M132.271,0h-38.1a2.117,2.117,0,0,0,0,4.233h35.983V40.217a2.117,2.117,0,0,0,4.233,0V2.117A2.115,2.115,0,0,0,132.271,0Z" fill="#4285f4"/>
        </g>
      </g>
      <g id="g405">
        <g id="g403">
          <path id="path401" d="M95.668.621a2.114,2.114,0,0,0-2.993,0L84.209,9.087A2.116,2.116,0,1,0,87.2,12.08l8.467-8.467a2.114,2.114,0,0,0,0-2.993Z" fill="#4285f4"/>
        </g>
      </g>
      <g id="g411">
        <g id="g409">
          <path id="path407" d="M133.768,38.72a2.114,2.114,0,0,0-2.993,0l-8.467,8.467A2.116,2.116,0,1,0,125.3,50.18l8.467-8.467A2.114,2.114,0,0,0,133.768,38.72Z" fill="#4285f4"/>
        </g>
      </g>
      <g id="g417">
        <g id="g415">
          <path id="path413" d="M133.768.621a2.114,2.114,0,0,0-2.993,0l-8.467,8.467A2.116,2.116,0,1,0,125.3,12.08l8.467-8.467a2.114,2.114,0,0,0,0-2.993Z" fill="#4285f4"/>
        </g>
      </g>
      <g id="g423">
        <g id="g421">
          <path id="path419" d="M123.8,93.107h-38.1a2.115,2.115,0,0,0-2.117,2.117v38.1a2.115,2.115,0,0,0,2.117,2.117h38.1a2.115,2.115,0,0,0,2.117-2.117v-38.1A2.115,2.115,0,0,0,123.8,93.107Zm-2.117,38.1H87.822V97.341h33.866Z" fill="#4285f4"/>
        </g>
      </g>
      <g id="g429">
        <g id="g427">
          <path id="path425" d="M132.271,84.641h-38.1a2.117,2.117,0,0,0,0,4.233h35.983v35.983a2.117,2.117,0,0,0,4.233,0v-38.1A2.115,2.115,0,0,0,132.271,84.641Z" fill="#4285f4"/>
        </g>
      </g>
      <g id="g435">
        <g id="g433">
          <path id="path431" d="M95.668,85.261a2.114,2.114,0,0,0-2.993,0l-8.467,8.467A2.116,2.116,0,1,0,87.2,96.72l8.467-8.467A2.114,2.114,0,0,0,95.668,85.261Z" fill="#4285f4"/>
        </g>
      </g>
      <g id="g441">
        <g id="g439">
          <path id="path437" d="M133.768,123.36a2.114,2.114,0,0,0-2.993,0l-8.467,8.467a2.116,2.116,0,1,0,2.993,2.993l8.467-8.467A2.114,2.114,0,0,0,133.768,123.36Z" fill="#4285f4"/>
        </g>
      </g>
      <g id="g447">
        <g id="g445">
          <path id="path443" d="M133.768,85.261a2.114,2.114,0,0,0-2.993,0l-8.467,8.467A2.116,2.116,0,1,0,125.3,96.72l8.467-8.467A2.114,2.114,0,0,0,133.768,85.261Z" fill="#4285f4"/>
        </g>
      </g>
      <g id="g453">
        <g id="g451">
          <path id="path449" d="M108.988,74.058a2.115,2.115,0,0,0-2.117,2.117V90.991a2.117,2.117,0,0,0,4.233,0V76.174A2.115,2.115,0,0,0,108.988,74.058Z" fill="#4285f4"/>
        </g>
      </g>
      <g id="g459">
        <g id="g457">
          <path id="path455" d="M108.988,57.124a8.475,8.475,0,0,0-8.467,8.467v8.467a8.467,8.467,0,1,0,16.933,0V65.591A8.475,8.475,0,0,0,108.988,57.124Zm4.233,16.933a4.233,4.233,0,1,1-8.467,0V65.591a4.233,4.233,0,1,1,8.467,0Z" fill="#4285f4"/>
        </g>
      </g>
      <g id="g465">
        <g id="g463">
          <path id="path461" d="M108.988,46.541a2.115,2.115,0,0,0-2.117,2.117V63.474a2.117,2.117,0,1,0,4.233,0V48.658A2.115,2.115,0,0,0,108.988,46.541Z" fill="#4285f4"/>
        </g>
      </g>
    </g>
  </g>
</svg>
