<svg xmlns="http://www.w3.org/2000/svg" xmlns:xlink="http://www.w3.org/1999/xlink" width="118.461" height="135.465" viewBox="0 0 118.461 135.465">
  <defs>
    <clipPath id="clip-path">
      <rect width="118.461" height="135.465" fill="none"/>
    </clipPath>
  </defs>
  <g id="layer1" clip-path="url(#clip-path)">
    <g id="layer1-2" data-name="layer1" transform="translate(-48.705 -70.778)">
      <g id="g2315" transform="translate(40.203 70.778)">
        <path id="path2311" d="M79.229,102.226a36.6,36.6,0,0,1-23,0,3.969,3.969,0,1,0-2.506,7.531,44.583,44.583,0,0,0,28.015,0,3.969,3.969,0,0,0-2.512-7.529Z" fill="#f4b400"/>
        <path id="path2313" d="M113.964,25.929A25.2,25.2,0,0,0,88.987,4.251H84.454V3.969A3.969,3.969,0,0,0,80.485,0H54.98a3.969,3.969,0,0,0-3.969,3.969v.282H46.478A25.22,25.22,0,0,0,21.512,25.926,16.747,16.747,0,0,0,8.5,42.227V76.234C8.5,87.11,17.361,91.543,21.385,92.5a46.48,46.48,0,0,0,92.693,0c10.431-2.476,12.885-11.94,12.885-16.266V42.227a16.746,16.746,0,0,0-13-16.3Zm-29.51-13.74h4.533c11.229,0,15.868,9.181,16.833,13.317H84.454ZM58.948,7.937H76.517V25.506H58.948Zm-12.47,4.251h4.533V25.506H29.662C32.236,14.722,42,12.188,46.478,12.188ZM67.732,127.528A38.569,38.569,0,0,1,29.394,92.956H48.965a18.607,18.607,0,0,0,13.073-5.414l.061-.062a8.059,8.059,0,0,1,11.268,0l.061.062A18.607,18.607,0,0,0,86.5,92.956H106.07A38.6,38.6,0,0,1,67.732,127.528Zm51.293-51.293a8.79,8.79,0,0,1-8.784,8.784H86.5a10.616,10.616,0,0,1-7.394-3.024l-.065-.067a16,16,0,0,0-22.617,0l-.065.067a10.616,10.616,0,0,1-7.394,3.024H25.223a8.789,8.789,0,0,1-8.784-8.784V42.227a8.794,8.794,0,0,1,8.784-8.784h85.018a8.794,8.794,0,0,1,8.784,8.784V76.234Z" fill="#f4b400"/>
      </g>
    </g>
  </g>
</svg>
