<svg xmlns="http://www.w3.org/2000/svg" width="64.235" height="69.009" viewBox="0 0 64.235 69.009">
  <g id="brain" transform="translate(-4.669 -2.491)">
    <path id="Path_7" data-name="Path 7" d="M66.416,32.466a6.97,6.97,0,0,1-6.967,6.967,7.4,7.4,0,0,1-1.049-.075v.15A7.188,7.188,0,0,1,51.234,46.7a7.663,7.663,0,0,1-1.323-.125,8.134,8.134,0,0,1-5.594,2.2A8.3,8.3,0,0,1,36.8,44a5.409,5.409,0,0,1-9.889.9,4.041,4.041,0,0,1-.549.025,5.414,5.414,0,0,1-5.419-5.419,5.011,5.011,0,0,1,.025-.624.848.848,0,0,1-.25.025A8.216,8.216,0,0,1,14.1,35.563a5.238,5.238,0,0,1-5.219-5.244A5.473,5.473,0,0,1,9.232,28.4a6.13,6.13,0,0,1,1.548-9.564,7.347,7.347,0,0,1,6.02-7.071,3.562,3.562,0,0,1-.175-1.149A4.455,4.455,0,0,1,21.07,6.171a4.343,4.343,0,0,1,3.746,2.073A8.474,8.474,0,0,1,39.647,6.7a7.891,7.891,0,0,1,4.37-1.3,8.03,8.03,0,0,1,7.142,4.32,5.613,5.613,0,0,1,1.948-.349,5.771,5.771,0,0,1,5.768,5.768,5.174,5.174,0,0,1-.075.874,5.106,5.106,0,0,1,1.673,3.621,5.2,5.2,0,0,1,3.6,4.919,5.44,5.44,0,0,1-.524,2.3,6.87,6.87,0,0,1,2.867,5.613Z" fill="rgba(228,57,28,0)" stroke="#707070" stroke-width="1"/>
    <path id="Path_8" data-name="Path 8" d="M64.6,37.15a6.665,6.665,0,0,0,.12-1.27,6.88,6.88,0,0,0-2.88-5.62,5.315,5.315,0,0,0,.53-2.29,5.2,5.2,0,0,0-3.6-4.92,5.087,5.087,0,0,0-1.67-3.62,5.216,5.216,0,0,0,.07-.88,5.737,5.737,0,0,0-7.71-5.42,8.034,8.034,0,0,0-7.14-4.32,7.887,7.887,0,0,0-4.37,1.3,8.485,8.485,0,0,0-14.84,1.55,4.327,4.327,0,0,0-3.74-2.07,4.394,4.394,0,0,0-2.75.96,4.459,4.459,0,0,1,4.45-4.38,4.348,4.348,0,0,1,3.74,2.07A8.479,8.479,0,0,1,39.65,6.7a7.832,7.832,0,0,1,4.37-1.3,8.034,8.034,0,0,1,7.14,4.32,5.484,5.484,0,0,1,1.95-.35,5.764,5.764,0,0,1,5.76,5.77,5.106,5.106,0,0,1-.07.87,5.1,5.1,0,0,1,1.67,3.62,5.2,5.2,0,0,1,3.6,4.92,5.392,5.392,0,0,1-.53,2.3,6.925,6.925,0,0,1,1.06,10.3Z" fill="rgba(234,100,83,0)"/>
    <path id="Path_9" data-name="Path 9" d="M9.382,62.2h-1v-7.1l6.805-4.026V37.183h1V51.638L9.382,55.664Z" fill="#db4437"/>
    <path id="Path_10" data-name="Path 10" d="M37.641,64.425h-1V30.743l5.719-4.557.623.782-5.342,4.257Z" fill="#db4437"/>
    <path id="Path_11" data-name="Path 11" d="M26.639,54.882h-1V31.531L19.4,27.988l.494-.87,6.75,3.831Z" fill="#db4437"/>
    <path id="Path_12" data-name="Path 12" d="M65.62,62.65h-1V57.385l-6.8-4.022V40.626h1V52.792l6.8,4.023Z" fill="#db4437"/>
    <path id="Path_13" data-name="Path 13" d="M48.367,56.686h-1V37.026l3.685-3,.631.775-3.316,2.7Z" fill="#db4437"/>
    <path id="Path_33" data-name="Path 33" d="M3.286,0A3.286,3.286,0,1,1,0,3.286,3.286,3.286,0,0,1,3.286,0Z" transform="translate(61.832 62.648)" fill="rgba(219,68,55,0.9)" stroke="#db4437" stroke-width="1"/>
    <path id="Path_14" data-name="Path 14" d="M65.118,69.72A3.786,3.786,0,1,1,68.9,65.934,3.786,3.786,0,0,1,65.118,69.72Zm0-6.572A2.786,2.786,0,1,0,67.9,65.934a2.786,2.786,0,0,0-2.782-2.786Z" fill="#db4437"/>
    <path id="Path_35" data-name="Path 35" d="M3.286,0A3.286,3.286,0,1,1,0,3.286,3.286,3.286,0,0,1,3.286,0Z" transform="translate(44.579 56.691)" fill="rgba(219,68,55,0.84)"/>
    <path id="Path_15" data-name="Path 15" d="M47.865,63.764a3.786,3.786,0,1,1,3.786-3.786,3.786,3.786,0,0,1-3.786,3.786Zm0-6.573a2.786,2.786,0,1,0,2.786,2.786,2.786,2.786,0,0,0-2.786-2.786Z" fill="#db4437"/>
    <path id="Path_37" data-name="Path 37" d="M3.286,0A3.286,3.286,0,1,1,0,3.286,3.286,3.286,0,0,1,3.286,0Z" transform="translate(33.852 64.428)" fill="rgba(219,68,55,0.84)"/>
    <path id="Path_16" data-name="Path 16" d="M37.139,71.5a3.786,3.786,0,1,1,3.786-3.786A3.786,3.786,0,0,1,37.139,71.5Zm0-6.573a2.786,2.786,0,1,0,2.786,2.786A2.786,2.786,0,0,0,37.139,64.927Z" fill="#db4437"/>
    <path id="Path_36" data-name="Path 36" d="M3.286,0a3.286,3.286,0,0,1,0,6.572,3.576,3.576,0,0,1-1.659-.449A3.164,3.164,0,0,1,0,3.286,3.286,3.286,0,0,1,3.286,0Z" transform="translate(22.849 54.884)" fill="rgba(219,68,55,0.86)"/>
    <path id="Path_17" data-name="Path 17" d="M26.135,61.956a3.786,3.786,0,1,1,3.786-3.786,3.786,3.786,0,0,1-3.786,3.786Zm0-6.573a2.786,2.786,0,1,0,2.786,2.786,2.786,2.786,0,0,0-2.786-2.786Z" fill="#db4437"/>
    <path id="Path_34" data-name="Path 34" d="M3.286,0A3.286,3.286,0,1,1,0,3.286,3.286,3.286,0,0,1,3.286,0Z" transform="translate(5.596 62.238)" fill="rgba(219,68,55,0.86)" stroke="#db4437" stroke-width="1"/>
    <path id="Path_18" data-name="Path 18" d="M8.882,69.31a3.786,3.786,0,1,1,3.786-3.786A3.786,3.786,0,0,1,8.882,69.31Zm0-6.572a2.786,2.786,0,1,0,2.786,2.786,2.786,2.786,0,0,0-2.786-2.786Z" fill="#db4437"/>
    <path id="Path_19" data-name="Path 19" d="M28.956,17.9l-1-.1A7.012,7.012,0,0,1,30.3,13.424a6.928,6.928,0,0,1,5.276-1.333l-.1,1c-5.9-.6-6.5,4.584-6.52,4.809Z" fill="#db4437"/>
    <path id="Path_20" data-name="Path 20" d="M51.606,18.764c-2.381-4.882-6.75-4.118-6.933-4.082l-.19-.982A7.641,7.641,0,0,1,52.5,18.325Z" fill="#db4437"/>
    <path id="Path_21" data-name="Path 21" d="M58.156,27.166a5.838,5.838,0,0,1-5.382-3.845l.949-.313a4.743,4.743,0,0,0,5.441,3.073l.162.987a7.285,7.285,0,0,1-1.17.1Z" fill="#db4437"/>
    <path id="Path_22" data-name="Path 22" d="M28.664,26.1a5.588,5.588,0,0,0-5.988-3.229l-.18-.984a6.68,6.68,0,0,1,7.076,3.794Z" fill="#db4437"/>
    <path id="Path_39" data-name="Path 39" d="M2.433,0A2.433,2.433,0,1,1,0,2.433,2.433,2.433,0,0,1,2.433,0Z" transform="translate(42.146 22.637)" fill="rgba(219,68,55,0.85)"/>
    <path id="Path_23" data-name="Path 23" d="M44.579,28a2.933,2.933,0,1,1,2.934-2.934A2.933,2.933,0,0,1,44.579,28Zm0-4.867a1.933,1.933,0,1,0,1.934,1.933,1.933,1.933,0,0,0-1.934-1.933Z" fill="#db4437"/>
    <path id="Path_40" data-name="Path 40" d="M2.433,0A2.433,2.433,0,1,1,0,2.433,2.433,2.433,0,0,1,2.433,0Z" transform="translate(15.133 23.844)" fill="rgba(219,68,55,0.82)"/>
    <path id="Path_24" data-name="Path 24" d="M17.565,29.21A2.933,2.933,0,1,1,20.5,26.276,2.933,2.933,0,0,1,17.565,29.21Zm0-4.867A1.933,1.933,0,1,0,19.5,26.277a1.933,1.933,0,0,0-1.935-1.934Z" fill="#db4437"/>
    <path id="Path_38" data-name="Path 38" d="M2.433,0A2.433,2.433,0,1,1,0,2.433,2.433,2.433,0,0,1,2.433,0Z" transform="translate(50.816 30.442)" fill="rgba(219,68,55,0.83)"/>
    <g id="Group_4" data-name="Group 4">
      <path id="Path_25" data-name="Path 25" d="M53.249,35.808a2.933,2.933,0,1,1,2.934-2.933,2.933,2.933,0,0,1-2.934,2.933Zm0-4.867a1.933,1.933,0,1,0,1.934,1.934,1.933,1.933,0,0,0-1.934-1.934Z" fill="#db4437"/>
      <path id="Path_26" data-name="Path 26" d="M9.7,37.75a.5.5,0,0,1-.271-.079,8.718,8.718,0,0,1-4.046-7.352.5.5,0,1,1,1,0,7.72,7.72,0,0,0,3.587,6.51.5.5,0,0,1-.271.921Z" fill="#db4437"/>
      <path id="Path_27" data-name="Path 27" d="M5.309,28.25a.5.5,0,0,1-.461-.306c-.038-.09-.07-.182-.1-.275L4.7,27.547a.5.5,0,0,1,.939-.345l.049.14c.025.071.05.143.079.213a.5.5,0,0,1-.461.694Z" fill="#db4437"/>
      <path id="Path_28" data-name="Path 28" d="M61.872,15.438a.5.5,0,0,1-.5-.489,8.217,8.217,0,0,0-4.754-7.287.5.5,0,0,1,.426-.905,9.213,9.213,0,0,1,5.328,8.169.5.5,0,0,1-.489.511Z" fill="#db4437"/>
      <path id="Path_29" data-name="Path 29" d="M63.779,18.542a.5.5,0,0,1-.3-.1l-.125-.1c-.05-.04-.1-.08-.152-.116a.5.5,0,1,1,.561-.828c.076.051.146.107.217.164l.1.08a.5.5,0,0,1-.3.9Z" fill="#db4437"/>
      <path id="Path_30" data-name="Path 30" d="M44.316,49.272a8.846,8.846,0,0,1-7.464-4.13,5.91,5.91,0,0,1-10.215.281h-.275A5.926,5.926,0,0,1,20.443,39.5v-.1a8.648,8.648,0,0,1-6.595-3.349,5.772,5.772,0,0,1-5.466-5.736,5.946,5.946,0,0,1,.28-1.81,6.631,6.631,0,0,1,1.629-9.975,7.887,7.887,0,0,1,5.9-7.147,4.361,4.361,0,0,1-.065-.771,4.947,4.947,0,0,1,8.591-3.343A8.981,8.981,0,0,1,39.781,6.025,8.421,8.421,0,0,1,44.017,4.9,8.54,8.54,0,0,1,51.4,9.115a6.155,6.155,0,0,1,1.712-.245,6.276,6.276,0,0,1,6.269,6.269,5.5,5.5,0,0,1-.043.689,5.642,5.642,0,0,1,1.618,3.445,5.665,5.665,0,0,1,3.619,5.279,5.86,5.86,0,0,1-.411,2.135A7.459,7.459,0,0,1,58.89,39.913,7.688,7.688,0,0,1,51.233,47.2a7.95,7.95,0,0,1-1.166-.092,8.677,8.677,0,0,1-5.751,2.164Zm-7.6-6.626.536,1.144a7.832,7.832,0,0,0,7.064,4.482,7.679,7.679,0,0,0,5.253-2.063l.183-.17.245.043a7.2,7.2,0,0,0,1.236.117A6.687,6.687,0,0,0,57.9,39.508v-.726l.57.081a6.952,6.952,0,0,0,.979.07,6.474,6.474,0,0,0,6.467-6.467,6.409,6.409,0,0,0-2.662-5.212l-.337-.241.175-.376a4.951,4.951,0,0,0,.478-2.087,4.674,4.674,0,0,0-3.251-4.444L59.985,20l-.013-.35a4.627,4.627,0,0,0-1.507-3.267l-.2-.183.045-.271a4.706,4.706,0,0,0,.068-.792,5.274,5.274,0,0,0-5.269-5.269,5.089,5.089,0,0,0-1.771.318l-.413.155L50.72,9.95A7.545,7.545,0,0,0,44.02,5.9a7.4,7.4,0,0,0-4.094,1.215l-.412.272-.277-.409a7.974,7.974,0,0,0-13.96,1.456l-.376.927L24.386,8.5a3.867,3.867,0,0,0-3.317-1.83,3.949,3.949,0,0,0-3.945,3.945,3.078,3.078,0,0,0,.149.992l.181.544-.564.1a6.877,6.877,0,0,0-5.608,6.586l-.006.291-.257.138A5.63,5.63,0,0,0,9.6,28.055l.211.227-.109.29a4.969,4.969,0,0,0-.316,1.748,4.711,4.711,0,0,0,4.723,4.744h.25l.147.2a7.671,7.671,0,0,0,6.216,3.144.583.583,0,0,0,.108,0l.753-.25-.115.792a4.514,4.514,0,0,0-.021.561,4.951,4.951,0,0,0,4.984,4.919,3.041,3.041,0,0,0,.413-.02l.341-.048.167.3a4.909,4.909,0,0,0,8.976-.812Z" fill="#db4437"/>
    </g>
    <path id="Path_31" data-name="Path 31" d="M10.637,24.267a.626.626,0,0,1-.1-.009.6.6,0,0,1-.488-.693,3.661,3.661,0,0,1,1.874-2.62l1.23-.664.03-1.4a4.967,4.967,0,0,1,.1-.877.6.6,0,1,1,1.176.238,3.78,3.78,0,0,0-.076.665l-.037,1.747a.6.6,0,0,1-.314.516L12.489,22a2.469,2.469,0,0,0-1.263,1.768.6.6,0,0,1-.589.5Z" fill="#fff"/>
    <path id="Path_32" data-name="Path 32" d="M15.133,16.454a.6.6,0,0,1-.409-1.039,5.29,5.29,0,0,1,.73-.567.6.6,0,1,1,.654,1.006,4.153,4.153,0,0,0-.566.438.6.6,0,0,1-.409.162Z" fill="#fff"/>
  </g>
</svg>
