<svg xmlns="http://www.w3.org/2000/svg" width="169.336" height="169.334" viewBox="0 0 169.336 169.334">
  <g id="layer1" transform="translate(-21.606 -60.537)">
    <g id="g1641" transform="translate(21.437 60.537)">
      <path id="path1570" d="M122.251,91.982q1.294-1.261,2.5-2.6l-4.2-3.776c-.723.8-1.468,1.583-2.259,2.334a36.539,36.539,0,0,0-10.882,26.082v4.516H62.26v-4.516a35.707,35.707,0,0,0-10.608-25.8q-1.313-1.259-2.54-2.616l-4.2,3.776q1.364,1.513,2.822,2.919a30.037,30.037,0,0,1,8.879,21.725v4.516a11.261,11.261,0,0,0-3.706,21.9,11.288,11.288,0,0,0,9.35,17.607h3.1a14.136,14.136,0,0,0,13.829,11.289H90.483a14.135,14.135,0,0,0,13.829-11.289h3.1a11.288,11.288,0,0,0,9.35-17.607,11.261,11.261,0,0,0-3.706-21.9v-4.516a30.856,30.856,0,0,1,9.19-22.036ZM90.482,163.69H79.193a8.468,8.468,0,0,1-7.947-5.644H98.43a8.465,8.465,0,0,1-7.947,5.644ZM107.416,152.4H62.26a5.644,5.644,0,0,1,0-11.289h45.156a5.644,5.644,0,1,1,0,11.289ZM118.7,129.823a5.645,5.645,0,0,1-5.644,5.644H56.616a5.644,5.644,0,1,1,0-11.289H113.06A5.645,5.645,0,0,1,118.7,129.823Zm0,0" fill="#0f9d58"/>
      <path id="path1572" d="M28.393,73.378H76.371V76.2a8.467,8.467,0,0,0,16.933,0V73.378h47.978a2.822,2.822,0,0,0,2.822-2.822V2.822A2.822,2.822,0,0,0,141.283,0h-50.8A2.822,2.822,0,0,0,87.66,2.822V5.644H82.016V2.822A2.822,2.822,0,0,0,79.193,0h-50.8a2.822,2.822,0,0,0-2.822,2.822V70.556A2.822,2.822,0,0,0,28.393,73.378ZM93.3,5.644h45.156V67.734H93.3ZM87.66,11.289V76.2a2.822,2.822,0,0,1-5.644,0V11.289ZM31.216,5.644H76.371V67.734H31.216Zm0,0" fill="#0f9d58"/>
      <path id="path1574" d="M19.927,81.845H73.549V76.2h-50.8V8.545H17.1V79.023a2.822,2.822,0,0,0,2.822,2.822Zm0,0" fill="#0f9d58"/>
      <path id="path1576" d="M36.86,16.933H42.5v5.644H36.86Zm0,0" fill="#0f9d58"/>
      <path id="path1578" d="M48.149,16.933H70.727v5.644H48.149Zm0,0" fill="#0f9d58"/>
      <path id="path1580" d="M36.86,28.222H70.727v5.644H36.86Zm0,0" fill="#0f9d58"/>
      <path id="path1582" d="M36.86,39.511H70.727v5.644H36.86Zm0,0" fill="#0f9d58"/>
      <path id="path1584" d="M36.86,50.8H70.727v5.644H36.86Zm0,0" fill="#0f9d58"/>
      <path id="path1586" d="M146.927,76.2h-50.8v5.644h53.623a2.822,2.822,0,0,0,2.822-2.822V8.545h-5.644Zm0,0" fill="#0f9d58"/>
      <path id="path1588" d="M127.172,16.933h5.644v5.644h-5.644Zm0,0" fill="#0f9d58"/>
      <path id="path1590" d="M98.949,16.933h22.578v5.644H98.949Zm0,0" fill="#0f9d58"/>
      <path id="path1592" d="M98.949,28.222h33.867v5.644H98.949Zm0,0" fill="#0f9d58"/>
      <path id="path1594" d="M98.949,39.511h33.867v5.644H98.949Zm0,0" fill="#0f9d58"/>
      <path id="path1596" d="M98.949,50.8h33.867v5.644H98.949Zm0,0" fill="#0f9d58"/>
      <path id="path1598" d="M166.683,36.689h-8.467v5.644h5.644V127h-8.467v5.644h11.289a2.822,2.822,0,0,0,2.822-2.822V39.511A2.822,2.822,0,0,0,166.683,36.689Zm0,0" fill="#0f9d58"/>
      <path id="path1600" d="M144.1,127h5.644v5.644H144.1Zm0,0" fill="#0f9d58"/>
      <path id="path1602" d="M132.816,127h5.644v5.644h-5.644Zm0,0" fill="#0f9d58"/>
      <path id="path1604" d="M31.532,128.977l1.162-5.523a33.913,33.913,0,0,1-26.15-40.13L1.018,82.161a39.559,39.559,0,0,0,30.514,46.816Zm0,0" fill="#0f9d58"/>
      <path id="path1606" d="M14.282,138.29H8.638v11.289A2.822,2.822,0,0,0,11.46,152.4H45.327v-5.644H14.282Zm0,0" fill="#0f9d58"/>
      <path id="path1608" d="M8.638,127h5.644v5.644H8.638Zm0,0" fill="#0f9d58"/>
      <path id="path1610" d="M84.838,90.112a8.466,8.466,0,1,0-11.971,11.974l9.976,9.977a2.824,2.824,0,0,0,3.991,0l9.977-9.977A8.467,8.467,0,1,0,84.838,90.109Zm3.991,3.994A2.822,2.822,0,1,1,92.82,98.1l-7.982,7.982L76.856,98.1A2.823,2.823,0,1,1,80.847,94.1l2,2a2.821,2.821,0,0,0,3.991,0Zm0,0" fill="#0f9d58"/>
      <path id="path1645" d="M103.459,144.46a10.046,10.046,0,0,1-5.067-5.327,15.829,15.829,0,0,1-.412-3.459l0-1.984H73.41c-24.065,0-24.584-.016-25.325-.756s-.756-1.26-.756-35.719.011-34.974.756-35.719,1.26-.756,27.043-.756h26.287l.928.928c.74.74.928,1.314.928,2.835v1.907h6.048V64.4c0-1.615.173-2.175.875-2.835l.875-.822h52.548l.822.875.822.875v69.659l-.827.771c-.815.759-1.194.771-25.325.771h-24.5v1.941a8.727,8.727,0,0,1-2.639,6.807,7.52,7.52,0,0,1-8.512,2.023Zm4.931-5.651.928-.928V71.7H103.27v66.181l.928.928a2.832,2.832,0,0,0,4.192,0ZM97.978,97.214V66.031H52.621V128.4H97.978Zm61.989,0V66.031H114.609V128.4h45.357Z" transform="translate(-21.437 -60.538)" fill="#0f9d58"/>
      <path id="path1647" d="M103.459,144.46a10.046,10.046,0,0,1-5.067-5.327,15.829,15.829,0,0,1-.412-3.459l0-1.984H73.41c-24.065,0-24.584-.016-25.325-.756s-.756-1.26-.756-35.719.011-34.974.756-35.719,1.26-.756,27.187-.756H101.7l.783,1a4.285,4.285,0,0,1,.783,2.835v1.839h6.048V64.4c0-1.615.173-2.175.875-2.835l.875-.822h52.548l.822.875.822.875v69.659l-.827.771c-.815.759-1.194.771-25.325.771h-24.5v1.941a8.727,8.727,0,0,1-2.639,6.807,7.52,7.52,0,0,1-8.512,2.023Zm4.931-5.651.928-.928V71.7H103.27v66.181l.928.928a2.832,2.832,0,0,0,4.192,0ZM97.978,97.214V66.031H52.621V128.4H97.978Zm61.989,0V66.031H114.609V128.4h45.357Z" transform="translate(-21.437 -60.538)" fill="#0f9d58"/>
      <path id="path1649" d="M103.459,144.46a10.046,10.046,0,0,1-5.067-5.327,15.829,15.829,0,0,1-.412-3.459l0-1.984H73.41c-24.065,0-24.584-.016-25.325-.756s-.756-1.26-.756-35.719.011-34.974.756-35.719,1.26-.756,27.187-.756H101.7l.783,1a4.285,4.285,0,0,1,.783,2.835v1.839h6.048V64.4c0-1.615.173-2.175.875-2.835l.875-.822h52.548l.822.875.822.875v69.659l-.827.771c-.815.759-1.194.771-25.325.771h-24.5v1.941a8.727,8.727,0,0,1-2.639,6.807,7.52,7.52,0,0,1-8.512,2.023Zm4.931-5.651.928-.928V71.7H103.27v66.181l.928.928a2.832,2.832,0,0,0,4.192,0ZM97.978,97.214V66.031H52.621V128.4H97.978Zm61.989,0V66.031H114.609V128.4h45.357Z" transform="translate(-21.437 -60.538)" fill="#0f9d58"/>
      <path id="path1651" d="M103.081,144.31a8.773,8.773,0,0,1-5.1-8.341v-2.28H73.41c-24.065,0-24.584-.016-25.325-.756s-.756-1.26-.756-35.719.011-34.974.756-35.719,1.26-.756,27.187-.756H101.7l.783,1a4.285,4.285,0,0,1,.783,2.835v1.839h6.048V64.4c0-1.615.173-2.175.875-2.835l.875-.822h52.548l.822.875.822.875v69.659l-.827.771c-.815.759-1.194.771-25.325.771h-24.5v1.941a9.067,9.067,0,0,1-2.213,6.429,7.854,7.854,0,0,1-9.315,2.252Zm5.237-5.5,1-.927V71.7H103.27v66.182l1,.927a2.673,2.673,0,0,0,4.047,0Zm-10.339-41.6V66.031H52.621V128.4H97.978Zm61.989,0V66.031H114.609V128.4h45.357Z" transform="translate(-21.437 -60.538)" fill="#0f9d58"/>
      <path id="path1653" d="M103.081,144.323a9.95,9.95,0,0,1-4.7-5.221,15.719,15.719,0,0,1-.4-3.429l0-1.984H73.409c-24.065,0-24.584-.016-25.325-.756s-.756-1.26-.756-35.719.011-34.974.756-35.719,1.26-.756,27.187-.756H101.7l.783,1a4.285,4.285,0,0,1,.783,2.835v1.839h6.048V64.4c0-1.615.173-2.175.875-2.835l.875-.822h52.548l.822.875.822.875v69.659l-.827.771c-.815.759-1.194.771-25.325.771h-24.5l0,1.984a8.468,8.468,0,0,1-2.149,6.313,7.889,7.889,0,0,1-9.378,2.337Zm4.466-5.026c1.808-.963,1.746.263,1.759-34.618l.012-32.979H103.27l.012,32.979c.013,34.7-.041,33.609,1.689,34.6a2.215,2.215,0,0,0,2.576.017ZM97.978,97.214V66.031H52.621V128.4H97.978Zm61.989,0V66.031H114.609V128.4h45.357Z" transform="translate(-21.437 -60.538)" fill="#0f9d58"/>
    </g>
  </g>
</svg>
