<svg height="464pt" viewBox="-128 0 464 464" width="464pt" xmlns="http://www.w3.org/2000/svg"><path d="m160 232h-112c-13.300781 0-24-10.699219-24-24s10.699219-24 24-24h112c13.300781 0 24 10.699219 24 24s-10.699219 24-24 24zm-112-32c-4.398438 0-8 3.601562-8 8s3.601562 8 8 8h112c4.398438 0 8-3.601562 8-8s-3.601562-8-8-8zm0 0" fill="#8e9499"/><path d="m104 264c-13.300781 0-24-10.699219-24-24s10.699219-24 24-24 24 10.699219 24 24-10.699219 24-24 24zm0-32c-4.398438 0-8 3.601562-8 8s3.601562 8 8 8 8-3.601562 8-8-3.601562-8-8-8zm0 0" fill="#8e9499"/><path d="m112 280h-16v-32c0-4.398438 3.601562-8 8-8s8 3.601562 8 8zm0 0" fill="#da922a"/><path d="m32 0h144v136h-144zm0 0" fill="#428dc5"/><path d="m176 160-72 32-72-32v-24h144zm0 0" fill="#277baa"/><path d="m104 385c-13.800781 0-25-11.199219-25-25s11.199219-25 25-25 25 11.199219 25 25-11.199219 25-25 25zm0-48c-12.699219 0-23 10.300781-23 23s10.300781 23 23 23 23-10.300781 23-23-10.300781-23-23-23zm0 0"/><path d="m192 360c0 48.601562-39.398438 88-88 88s-88-39.398438-88-88 39.398438-88 88-88 88 39.398438 88 88zm0 0" fill="#da922a"/><path d="m80 0h48v136h-48zm0 0" fill="#fbb540"/><path d="m192 360 16-48-80.898438 24.898438 24.898438-80.898438-48 16-48-16 24.898438 80.898438-80.898438-24.898438 16 48-16 48 80.898438-24.898438-24.898438 80.898438 48-16 48 16-24.898438-80.898438 80.898438 24.898438zm0 0" fill="#f3af3e"/><path d="m96 184h16v16c0 4.398438-3.601562 8-8 8s-8-3.601562-8-8zm0 0" fill="#277baa"/></svg>