<svg height="464pt" viewBox="0 -8 464 464" width="464pt" xmlns="http://www.w3.org/2000/svg"><path d="m0 48h424v336h-376c-26.507812 0-48-21.492188-48-48zm0 0" fill="#99d8aa"/><path d="m232 352v-40c0-17.671875-14.328125-32-32-32h-24c0-17.671875-14.328125-32-32-32h-144v88c0 26.507812 21.492188 48 48 48h152c17.671875 0 32-14.328125 32-32zm0 0" fill="#8ac39a"/><path d="m216 48v10.742188c0 8.492187 3.371094 16.632812 9.375 22.632812l13.175781 13.175781c6.050781 6.050781 9.449219 14.253907 9.449219 22.808594v2.640625c0 17.671875 14.328125 32 32 32h24c4.417969 0 8 3.582031 8 8 0 13.253906 10.746094 24 24 24h88v-136zm0 0" fill="#8ac39a"/><path d="m152 48v41.488281c0 9.066407-4.535156 17.53125-12.078125 22.558594l-11.921875 7.953125v4.878906c0 14.980469-12.140625 27.121094-27.121094 27.121094h-20.878906v-104zm0 0" fill="#80b48e"/><path d="m464 368c0 44.183594-35.816406 80-80 80s-80-35.816406-80-80 35.816406-80 80-80 80 35.816406 80 80zm0 0" fill="#f7ba61"/><path d="m349.472656 332.648438 19.800782 48.078124 25.453124-25.453124zm0 0" fill="#e85244"/><path d="m417.351562 400.527344-48.078124-19.800782 25.453124-25.453124zm0 0" fill="#6cbae5"/><path d="m165.65625 293.65625-11.3125-11.3125-18.34375 18.34375-18.34375-18.34375-11.3125 11.3125 18.34375 18.34375-18.34375 18.34375 11.3125 11.3125 18.34375-18.34375 18.34375 18.34375 11.3125-11.3125-18.34375-18.34375zm0 0" fill="#f55648"/><path d="m296 320h-8.511719v-16h8.511719c2.066406 0 4.125-.160156 6.167969-.472656l2.398437 15.816406c-2.832031.4375-5.699218.65625-8.566406.65625zm-24.441406 0h-15.925782v-16h15.925782zm-31.855469 0h-15.917969v-16h15.917969zm-31.855469 0h-15.917968v-16h15.917968zm114.328125-6.488281-7.496093-14.136719c3.921874-2.070312 7.472656-4.773438 10.511718-8l11.664063 10.953125c-4.246094 4.511719-9.203125 8.289063-14.679688 11.183594zm24.9375-26.609375-14.59375-6.542969c1.816407-4.050781 2.9375-8.375 3.320313-12.800781l15.945312 1.410156c-.542968 6.199219-2.121094 12.261719-4.671875 17.933594zm-12.273437-32.503906c-1.054688-4.304688-2.820313-8.40625-5.230469-12.125l13.429687-8.671876c3.378907 5.210938 5.859376 10.953126 7.34375 16.984376zm-14.152344-21.886719c-3.480469-2.738281-7.398438-4.878907-11.582031-6.328125l5.230469-15.121094c5.871093 2.035156 11.359374 5.035156 16.238281 8.875zm-24.589844-8.511719h-15.929687v-16h15.832031zm-31.851562 0h-15.925782v-16h15.925782zm-31.855469 0h-15.925781v-16h15.925781zm-34.117187-2.863281c-5.890626-1.964844-11.410157-4.898438-16.335938-8.671875l9.734375-12.703125c3.519531 2.695312 7.460937 4.792969 11.664063 6.199219zm-28.953126-22.183594c-3.441406-5.175781-5.992187-10.886719-7.542968-16.90625l15.496094-4c1.101562 4.289063 2.917968 8.363281 5.375 12.050781zm6.800782-34.089844-15.953125-1.230469c.476562-6.195312 1.984375-12.265624 4.464843-17.960937l14.671876 6.398437c-1.769532 4.058594-2.84375 8.382813-3.183594 12.792969zm10.398437-23.871093-11.792969-10.816407c4.191407-4.578125 9.113282-8.425781 14.570313-11.382812l7.632813 14.054687c-3.90625 2.117188-7.433594 4.867188-10.433594 8.144532zm22.878907-12.449219-2.644532-15.742188c3.054688-.523437 6.148438-.789062 9.246094-.800781h8v16h-8c-2.21875 0-4.433594.183594-6.625.542969zm110.121093-.542969h-15.925781v-16h15.925781zm-31.855469 0h-15.929687v-16h15.929687zm-31.855468 0h-15.929688v-16h15.929688zm0 0" fill="#4799cf"/><path d="m379.992188 120c0 11.046875-8.953126 20-20 20-11.046876 0-20-8.953125-20-20s8.953124-20 20-20c11.046874 0 20 8.953125 20 20zm0 0" fill="#fbb540"/><path d="m0 48v288c0 26.507812 21.492188 48 48 48h24v-336zm0 0" fill="#85bc94"/><path d="m80 328c-23.382812-18.71875-56.617188-18.71875-80 0v-288c0-22.089844 17.910156-40 40-40s40 17.910156 40 40zm0 0" fill="#a4e8b7"/></svg>